<svg width="800" height="260" viewBox="0 0 800 260" fill="none" xmlns="http://www.w3.org/2000/svg" role="img" aria-label="Generated GitHub profile card">
  <rect x="1" y="1" width="798" height="258" rx="18" fill="#ffffff" fill-opacity="0.02" stroke="#d0d7de"/>
  <style>
    .title { font: 700 24px -apple-system, BlinkMacSystemFont, "Segoe UI", sans-serif; fill: #111827; }
    .subtitle { font: 500 13px -apple-system, BlinkMacSystemFont, "Segoe UI", sans-serif; fill: #6b7280; }
    .label { font: 600 12px -apple-system, BlinkMacSystemFont, "Segoe UI", sans-serif; fill: #6b7280; text-transform: uppercase; letter-spacing: 0.12em; }
    .value { font: 700 28px -apple-system, BlinkMacSystemFont, "Segoe UI", sans-serif; fill: #111827; }
    .small { font: 600 13px -apple-system, BlinkMacSystemFont, "Segoe UI", sans-serif; fill: #374151; }
    .body { font: 500 14px -apple-system, BlinkMacSystemFont, "Segoe UI", sans-serif; fill: #374151; }
  </style>
  
  <text x="36" y="42" class="title">June Cycle Activity</text>
  <text x="36" y="64" class="subtitle">Jun 1, 2025 to May 18, 2026</text>
  <g transform="translate(572 24)">
    <rect width="188" height="88" rx="16" fill="#f8fafc" stroke="#e5e7eb"/>
    <text x="18" y="28" class="label">Current streak</text>
    <text x="18" y="56" class="value">0</text>
    <text x="102" y="28" class="label">Longest streak</text>
    <text x="102" y="56" class="value">10</text>
  </g>
  <line x1="40" y1="210" x2="760" y2="210" stroke="#d1d5db"/>
  <rect x="40" y="206" width="42" height="4" rx="10" fill="#2563eb"/><rect x="101" y="206" width="42" height="4" rx="10" fill="#2563eb"/><rect x="162" y="189" width="42" height="21" rx="10" fill="#2563eb"/><rect x="223" y="174" width="42" height="36" rx="10" fill="#2563eb"/><rect x="284" y="164" width="42" height="46" rx="10" fill="#2563eb"/><rect x="345" y="148" width="42" height="62" rx="10" fill="#2563eb"/><rect x="406" y="175" width="42" height="35" rx="10" fill="#2563eb"/><rect x="467" y="153" width="42" height="57" rx="10" fill="#2563eb"/><rect x="528" y="196" width="42" height="14" rx="10" fill="#2563eb"/><rect x="589" y="167" width="42" height="43" rx="10" fill="#2563eb"/><rect x="650" y="102" width="42" height="108" rx="10" fill="#2563eb"/><rect x="711" y="200" width="42" height="10" rx="10" fill="#2563eb"/>
  <text x="61.0" y="230" text-anchor="middle" class="subtitle">Jun '25</text><text x="61.0" y="198" text-anchor="middle" class="small">0</text><text x="122.0" y="230" text-anchor="middle" class="subtitle">Jul '25</text><text x="122.0" y="198" text-anchor="middle" class="small">0</text><text x="183.0" y="230" text-anchor="middle" class="subtitle">Aug '25</text><text x="183.0" y="181" text-anchor="middle" class="small">81</text><text x="244.0" y="230" text-anchor="middle" class="subtitle">Sep '25</text><text x="244.0" y="166" text-anchor="middle" class="small">142</text><text x="305.0" y="230" text-anchor="middle" class="subtitle">Oct '25</text><text x="305.0" y="156" text-anchor="middle" class="small">182</text><text x="366.0" y="230" text-anchor="middle" class="subtitle">Nov '25</text><text x="366.0" y="140" text-anchor="middle" class="small">244</text><text x="427.0" y="230" text-anchor="middle" class="subtitle">Dec '25</text><text x="427.0" y="167" text-anchor="middle" class="small">139</text><text x="488.0" y="230" text-anchor="middle" class="subtitle">Jan '26</text><text x="488.0" y="145" text-anchor="middle" class="small">225</text><text x="549.0" y="230" text-anchor="middle" class="subtitle">Feb '26</text><text x="549.0" y="188" text-anchor="middle" class="small">56</text><text x="610.0" y="230" text-anchor="middle" class="subtitle">Mar '26</text><text x="610.0" y="159" text-anchor="middle" class="small">169</text><text x="671.0" y="230" text-anchor="middle" class="subtitle">Apr '26</text><text x="671.0" y="94" text-anchor="middle" class="small">426</text><text x="732.0" y="230" text-anchor="middle" class="subtitle">May '26</text><text x="732.0" y="192" text-anchor="middle" class="small">7</text>

</svg>
